# xmcd
#
# Track frame offsets:
#	150
#	13130
#	30955
#	52185
#	63595
#	84117
#	100382
#	134860
#	149600
#	166075
#
# Disc length: 2564 seconds
#
# Revision: 3
# Processed by: cddbd v1.5.1PL0 Copyright (c) Steve Scherf et al.
# Submitted via: audiograbber 1.83.01
#
DISCID=8a0a020a
DTITLE=Petr Kalandra - Petr Kalandra and Blues Session
DYEAR=1993
DGENRE=blues
TTITLE0=Heart of Gold - Dětské šaty
TTITLE1=After Midnight - Jednou dvakrát
TTITLE2=The Weight - Břímě
TTITLE3=Lonely by Day - Sám smutnej den
TTITLE4=Knockin' on Heaven's Door - Nebeská brána
TTITLE5=Fire and Rain - Slunce a déšť
TTITLE6=Like a Rolling Stone - Solnej sloup
TTITLE7=Old Man - Moje místo
TTITLE8=Cocaine
TTITLE9=Rainy Day Woman - Všichni budou hotoví
EXTD=
EXTT0=
EXTT1=
EXTT2=
EXTT3=
EXTT4=
EXTT5=
EXTT6=
EXTT7=
EXTT8=
EXTT9=
PLAYORDER=
